<mxfile host="app.diagrams.net" agent="Mozilla/5.0 (Windows NT 10.0; Win64; x64) AppleWebKit/537.36 (KHTML, like Gecko) Chrome/132.0.0.0 YaBrowser/25.2.0.0 Safari/537.36" version="26.1.0">
  <diagram name="Страница — 1" id="oUhsFt-HFjWvTel4i2ML">
    <mxGraphModel dx="875" dy="479" grid="1" gridSize="10" guides="1" tooltips="1" connect="1" arrows="1" fold="1" page="1" pageScale="1" pageWidth="827" pageHeight="1169" math="0" shadow="0">
      <root>
        <mxCell id="0" />
        <mxCell id="1" parent="0" />
        <mxCell id="PDTO_hq-UhZBg1z-A0Ne-8" value="&lt;h2&gt;Conference&lt;/h2&gt;" style="swimlane;childLayout=stackLayout;horizontal=1;startSize=50;horizontalStack=0;rounded=1;fontSize=14;fontStyle=0;strokeWidth=2;resizeParent=0;resizeLast=1;shadow=0;dashed=0;align=center;arcSize=4;whiteSpace=wrap;html=1;" vertex="1" parent="1">
          <mxGeometry x="40" y="50" width="230" height="190" as="geometry" />
        </mxCell>
        <mxCell id="PDTO_hq-UhZBg1z-A0Ne-9" value="&lt;font style=&quot;font-size: 15px;&quot;&gt;_id: ObjectId&lt;/font&gt;&lt;div&gt;&lt;font style=&quot;font-size: 15px; color: rgb(0, 0, 255);&quot;&gt;link: String&lt;/font&gt;&lt;/div&gt;&lt;div&gt;&lt;font style=&quot;font-size: 15px;&quot;&gt;tag_id: ObjectId&lt;/font&gt;&lt;/div&gt;&lt;div&gt;&lt;font style=&quot;font-size: 15px;&quot;&gt;next_meeting_timestamp: Int32&lt;/font&gt;&lt;/div&gt;&lt;div&gt;&lt;font style=&quot;font-size: 15px;&quot;&gt;timezone: Int32&lt;/font&gt;&lt;/div&gt;&lt;div&gt;&lt;font style=&quot;font-size: 15px;&quot;&gt;periodicity: Int32&lt;/font&gt;&lt;/div&gt;&lt;div&gt;&lt;font style=&quot;font-size: 15px;&quot;&gt;recordings: Array[ObjectId]&lt;/font&gt;&lt;/div&gt;" style="align=left;strokeColor=none;fillColor=none;spacingLeft=4;spacingRight=4;fontSize=12;verticalAlign=top;resizable=0;rotatable=0;part=1;html=1;whiteSpace=wrap;" vertex="1" parent="PDTO_hq-UhZBg1z-A0Ne-8">
          <mxGeometry y="50" width="230" height="140" as="geometry" />
        </mxCell>
        <mxCell id="PDTO_hq-UhZBg1z-A0Ne-12" value="&lt;h2&gt;Recording&lt;/h2&gt;" style="swimlane;childLayout=stackLayout;horizontal=1;startSize=50;horizontalStack=0;rounded=1;fontSize=14;fontStyle=0;strokeWidth=2;resizeParent=0;resizeLast=1;shadow=0;dashed=0;align=center;arcSize=4;whiteSpace=wrap;html=1;" vertex="1" parent="1">
          <mxGeometry x="470" y="50" width="230" height="140" as="geometry" />
        </mxCell>
        <mxCell id="PDTO_hq-UhZBg1z-A0Ne-13" value="&lt;font style=&quot;font-size: 15px;&quot;&gt;_id: ObjectId&lt;/font&gt;&lt;div&gt;&lt;font style=&quot;font-size: 15px;&quot;&gt;conference_id: ObjectId&lt;/font&gt;&lt;/div&gt;&lt;div&gt;&lt;span style=&quot;font-size: 15px;&quot;&gt;link: String&lt;/span&gt;&lt;/div&gt;&lt;div&gt;&lt;span style=&quot;font-size: 15px;&quot;&gt;timestamp: Int32&lt;/span&gt;&lt;/div&gt;" style="align=left;strokeColor=none;fillColor=none;spacingLeft=4;spacingRight=4;fontSize=12;verticalAlign=top;resizable=0;rotatable=0;part=1;html=1;whiteSpace=wrap;" vertex="1" parent="PDTO_hq-UhZBg1z-A0Ne-12">
          <mxGeometry y="50" width="230" height="90" as="geometry" />
        </mxCell>
        <mxCell id="PDTO_hq-UhZBg1z-A0Ne-14" value="&lt;h2&gt;Tag&lt;/h2&gt;" style="swimlane;childLayout=stackLayout;horizontal=1;startSize=50;horizontalStack=0;rounded=1;fontSize=14;fontStyle=0;strokeWidth=2;resizeParent=0;resizeLast=1;shadow=0;dashed=0;align=center;arcSize=4;whiteSpace=wrap;html=1;" vertex="1" parent="1">
          <mxGeometry x="40" y="320" width="230" height="120" as="geometry" />
        </mxCell>
        <mxCell id="PDTO_hq-UhZBg1z-A0Ne-15" value="&lt;font style=&quot;font-size: 15px;&quot;&gt;_id: ObjectId&lt;/font&gt;&lt;div&gt;&lt;span style=&quot;font-size: 15px;&quot;&gt;&lt;font style=&quot;color: rgb(0, 0, 255);&quot;&gt;name: String&lt;/font&gt;&lt;/span&gt;&lt;/div&gt;&lt;div&gt;&lt;span style=&quot;font-size: 15px;&quot;&gt;is_archived: Boolean&lt;/span&gt;&lt;/div&gt;" style="align=left;strokeColor=none;fillColor=none;spacingLeft=4;spacingRight=4;fontSize=12;verticalAlign=top;resizable=0;rotatable=0;part=1;html=1;whiteSpace=wrap;" vertex="1" parent="PDTO_hq-UhZBg1z-A0Ne-14">
          <mxGeometry y="50" width="230" height="70" as="geometry" />
        </mxCell>
        <mxCell id="PDTO_hq-UhZBg1z-A0Ne-16" value="&lt;h2&gt;User&lt;/h2&gt;" style="swimlane;childLayout=stackLayout;horizontal=1;startSize=50;horizontalStack=0;rounded=1;fontSize=14;fontStyle=0;strokeWidth=2;resizeParent=0;resizeLast=1;shadow=0;dashed=0;align=center;arcSize=4;whiteSpace=wrap;html=1;" vertex="1" parent="1">
          <mxGeometry x="480" y="300" width="230" height="140" as="geometry" />
        </mxCell>
        <mxCell id="PDTO_hq-UhZBg1z-A0Ne-17" value="&lt;font style=&quot;font-size: 15px;&quot;&gt;_id: ObjectId&lt;/font&gt;&lt;div&gt;&lt;span style=&quot;font-size: 15px;&quot;&gt;&lt;font style=&quot;color: rgb(0, 0, 255);&quot;&gt;telegram_tag: String&lt;/font&gt;&lt;/span&gt;&lt;/div&gt;&lt;div&gt;&lt;span style=&quot;font-size: 15px;&quot;&gt;&lt;font style=&quot;color: rgb(0, 0, 255);&quot;&gt;telegram_id: Int32&lt;/font&gt;&lt;/span&gt;&lt;/div&gt;&lt;div&gt;&lt;span style=&quot;font-size: 15px;&quot;&gt;role: String&lt;/span&gt;&lt;/div&gt;" style="align=left;strokeColor=none;fillColor=none;spacingLeft=4;spacingRight=4;fontSize=12;verticalAlign=top;resizable=0;rotatable=0;part=1;html=1;whiteSpace=wrap;" vertex="1" parent="PDTO_hq-UhZBg1z-A0Ne-16">
          <mxGeometry y="50" width="230" height="90" as="geometry" />
        </mxCell>
        <mxCell id="PDTO_hq-UhZBg1z-A0Ne-19" style="edgeStyle=orthogonalEdgeStyle;rounded=0;orthogonalLoop=1;jettySize=auto;html=1;exitX=1.001;exitY=0.899;exitDx=0;exitDy=0;entryX=-0.013;entryY=0.154;entryDx=0;entryDy=0;entryPerimeter=0;exitPerimeter=0;" edge="1" parent="1" source="PDTO_hq-UhZBg1z-A0Ne-9" target="PDTO_hq-UhZBg1z-A0Ne-13">
          <mxGeometry relative="1" as="geometry" />
        </mxCell>
        <mxCell id="PDTO_hq-UhZBg1z-A0Ne-22" style="edgeStyle=orthogonalEdgeStyle;rounded=0;orthogonalLoop=1;jettySize=auto;html=1;exitX=0;exitY=0.5;exitDx=0;exitDy=0;entryX=1.015;entryY=0.098;entryDx=0;entryDy=0;entryPerimeter=0;" edge="1" parent="1" source="PDTO_hq-UhZBg1z-A0Ne-13" target="PDTO_hq-UhZBg1z-A0Ne-9">
          <mxGeometry relative="1" as="geometry">
            <Array as="points">
              <mxPoint x="470" y="130" />
              <mxPoint x="330" y="130" />
              <mxPoint x="330" y="114" />
            </Array>
          </mxGeometry>
        </mxCell>
      </root>
    </mxGraphModel>
  </diagram>
</mxfile>
